<svg width="186" height="26" viewBox="0 0 186 26" fill="none" xmlns="http://www.w3.org/2000/svg"><title>J.P. Morgan Payments logo</title><g clip-path="url(#clip0_114_8286)"><path fill-rule="evenodd" clip-rule="evenodd" d="M135.991 14.4725C137.084 14.4725 137.494 14.0164 137.494 12.8004V12.6101C137.494 11.432 137.072 11.052 135.966 11.052H134.736V14.4725H135.991ZM133.494 10.0638H136.078C137.916 10.0638 138.811 11.1027 138.811 12.6989C138.811 14.2446 137.941 15.3721 136.078 15.3721H134.736V18.3112H133.494V10.0638Z" fill="currentColor"></path><path fill-rule="evenodd" clip-rule="evenodd" d="M142.464 12.6735L142.166 11.0393L141.805 12.6735L140.849 15.8027H143.383L142.464 12.6735ZM140.079 18.3112H138.998L141.619 10.0638H142.836L145.408 18.3112H144.116L143.644 16.6771H140.576L140.079 18.3112Z" fill="currentColor"></path><path fill-rule="evenodd" clip-rule="evenodd" d="M147.619 15.3848L145.172 10.0638H146.501L147.917 13.4084L148.29 15.0173L148.662 13.4084L150.029 10.0638H151.184L148.861 15.3212V18.3112H147.619V15.3848Z" fill="currentColor"></path><path fill-rule="evenodd" clip-rule="evenodd" d="M152.488 10.0638H154.128L155.619 15.5367L155.966 17.817L156.314 15.5367L157.867 10.0638H159.569V18.3112H158.351V14.2065L158.575 10.5578L158.004 13.2056L156.55 18.3112H155.246L153.855 13.2817L153.321 10.5578L153.532 14.2192V18.3112H152.488V10.0638Z" fill="currentColor"></path><path fill-rule="evenodd" clip-rule="evenodd" d="M161.595 10.0638H166.091V11.09H162.837V13.6112H165.632V14.5613H162.837V17.3105H166.315V18.3112H161.595V10.0638Z" fill="currentColor"></path><path fill-rule="evenodd" clip-rule="evenodd" d="M167.88 10.0638H169.246L171.743 14.9921L172.6 17.3864L172.302 14.5992V10.0638H173.408V18.3112H172.091L169.47 13.1802L168.7 10.9126L168.973 13.5477V18.3112H167.88V10.0638Z" fill="currentColor"></path><path fill-rule="evenodd" clip-rule="evenodd" d="M174.737 11.09V10.0638H180.153V11.09H178.066V18.3112H176.824V11.09H174.737Z" fill="currentColor"></path><path fill-rule="evenodd" clip-rule="evenodd" d="M180.986 17.9058L181.21 17.0064C181.893 17.3105 182.452 17.5258 183.222 17.5258C184.29 17.5258 184.787 17.2342 184.787 16.1829C184.787 15.3593 184.489 15.0805 183.272 14.7386C181.819 14.3459 181.048 13.877 181.048 12.2428C181.048 10.7352 181.943 9.91187 183.545 9.91187C184.539 9.91187 185.123 10.0891 185.644 10.3171L185.47 11.28C184.825 11.0645 184.427 10.938 183.582 10.938C182.614 10.938 182.204 11.2419 182.204 12.1288C182.204 12.9648 182.427 13.1802 183.694 13.5351C185.11 13.9151 185.992 14.4345 185.992 16.0307C185.992 17.6398 185.085 18.4886 183.396 18.4886C182.204 18.4886 181.521 18.2099 180.986 17.9058Z" fill="currentColor"></path><path fill-rule="evenodd" clip-rule="evenodd" d="M12.34 0.130249H5.14172V0.769656H7.4349V13.1871C7.4349 16.9226 6.43957 17.9713 4.22324 17.9713C3.39389 18.0404 2.66669 17.4108 2.59871 16.5649C2.59154 16.4729 2.59229 16.3804 2.60117 16.2888C2.60117 14.9314 2.52412 14.0957 1.33637 14.0957C0.148422 14.0957 0 15.3634 0 15.7503C0 17.433 1.27028 18.7678 4.5367 18.7678C8.43024 18.7678 9.96998 17.4048 9.96998 12.8618V0.764071H12.34V0.130249Z" fill="currentColor"></path><path fill-rule="evenodd" clip-rule="evenodd" d="M12.8236 15.8849C12.4463 15.8728 12.082 16.0259 11.8228 16.3056C11.5471 16.5789 11.3956 16.9569 11.4049 17.3488C11.3936 17.7346 11.5459 18.1065 11.8228 18.3696C12.0853 18.6446 12.4474 18.7968 12.8236 18.7902C13.2031 18.7979 13.5693 18.6458 13.8353 18.3696C14.1084 18.1044 14.2583 17.7333 14.2478 17.3488C14.2585 16.9577 14.1092 16.5798 13.8353 16.3056C13.5712 16.0265 13.2039 15.8738 12.8236 15.8849Z" fill="currentColor"></path><path fill-rule="evenodd" clip-rule="evenodd" d="M28.2376 15.8849C27.8609 15.8748 27.4974 16.0276 27.2368 16.3055C26.9664 16.5815 26.8191 16.9588 26.8299 17.3488C26.8172 17.7324 26.9652 18.1037 27.2368 18.3695C27.7972 18.9303 28.6946 18.9303 29.255 18.3695C29.54 18.1105 29.7005 17.738 29.695 17.3488C29.7041 16.5497 29.0764 15.8943 28.2929 15.8849C28.2818 15.8847 28.2706 15.8847 28.2597 15.8849" fill="currentColor"></path><path fill-rule="evenodd" clip-rule="evenodd" d="M23.7668 0.130249H16.7224V0.769656H18.7901V14.9427C18.7901 16.0644 18.7297 16.1037 18.6086 16.429C18.4558 16.8153 18.1473 17.1158 17.7617 17.2535C17.2979 17.4222 16.8077 17.5019 16.3154 17.489V18.3079H23.8988V17.5169C23.407 17.5233 22.9172 17.4514 22.447 17.3039C22.0478 17.1689 21.724 16.8671 21.5561 16.4738C21.4086 16.0925 21.3448 15.6827 21.3692 15.2736V10.6745H23.2444C28.694 10.6745 30.2228 8.43099 30.2228 5.37994C30.2228 2.32889 29.288 0.130249 23.7668 0.130249ZM22.8045 9.97346H21.3692V0.853819H22.6725C26.8738 0.853819 27.7921 2.65417 27.7921 5.56502C27.7921 8.47586 26.1425 9.9958 22.8045 9.9958" fill="currentColor"></path><path fill-rule="evenodd" clip-rule="evenodd" d="M51.9009 16.3953C51.7914 15.9939 51.7413 15.5779 51.7525 15.1613V0.775242H53.5781V0.130249H49.1349L43.7677 14.0171C43.749 14.0686 43.7005 14.1025 43.6467 14.1013C43.5906 14.1069 43.5381 14.072 43.5203 14.0171C43.5203 14.0171 37.8837 0.298575 37.8176 0.130249H32.8685V0.775242H34.9196V14.5893L34.8756 15.8681C34.8503 16.1823 34.7481 16.485 34.5787 16.7487C34.3861 17.0291 34.1076 17.2363 33.7868 17.3376C33.4557 17.4333 33.1136 17.4825 32.7695 17.4834V18.3079H37.7957V17.5169C37.5073 17.5165 37.2213 17.4672 36.9488 17.3711C36.6247 17.2798 36.3388 17.0828 36.1349 16.8103C35.967 16.5397 35.8653 16.232 35.8381 15.913L35.7774 14.6342V2.67652H36.0745C36.0745 2.67652 42.437 18.1396 42.5029 18.3079H43.0528L49.1018 2.84484H49.2559V15.1446C49.2557 15.569 49.1908 15.991 49.0633 16.3953C48.94 16.7726 48.6694 17.0811 48.3155 17.2479C47.9145 17.3998 47.4896 17.4759 47.0617 17.4721V18.291H53.9356V17.5169C53.5033 17.514 53.0751 17.4324 52.6708 17.2758C52.3037 17.1067 52.0238 16.7866 51.9009 16.3953Z" fill="currentColor"></path><path fill-rule="evenodd" clip-rule="evenodd" d="M61.1507 4.99304C57.4774 4.99304 55.1787 7.52814 55.1787 11.942C55.1787 18.4144 60.0234 18.8406 61.0627 18.8406C63.1359 18.8406 67.0568 17.5002 67.0568 11.8187C67.0568 7.3991 64.5437 4.99304 61.1507 4.99304ZM61.1013 18.0387C58.3517 18.0387 57.9117 16.6085 57.9117 12.015C57.9117 8.46472 58.1262 5.80058 61.1013 5.80058C64.3072 5.80058 64.3182 8.55446 64.3182 11.7906C64.3182 16.4346 63.5593 18.0387 61.1013 18.0387Z" fill="currentColor"></path><path fill-rule="evenodd" clip-rule="evenodd" d="M76.6528 5.1781C74.4533 5.1781 73.6998 6.52413 73.1005 7.89828C73.0419 7.8925 72.983 7.8925 72.9245 7.89828L72.4845 5.29019H68.3271V5.98006H70.6092V14.9539C70.6679 15.6141 70.5795 16.2795 70.3509 16.9001C70.0924 17.3318 69.5644 17.5002 68.701 17.5002H68.3326V18.3191H75.4429V17.5169H75.0581C74.1232 17.5169 73.6503 17.3095 73.4083 16.8833C73.1433 16.284 73.0317 15.6259 73.0838 14.9707V10.2988C73.0838 8.73394 74.2937 6.93358 75.6574 6.93358C77.0212 6.93358 77.1313 9.05923 78.6655 8.29637C79.7653 7.73554 79.5124 5.18369 76.6694 5.18369" fill="currentColor"></path><path fill-rule="evenodd" clip-rule="evenodd" d="M104.989 16.9561C104.23 16.9561 103.988 16.5187 103.933 15.7784L103.889 14.0957V8.65534C103.889 7.48322 103.708 6.68665 103.042 5.99679C102.377 5.30692 101.118 4.94812 99.2808 4.94812C97.4443 4.94812 96.2125 5.29016 95.382 5.95191C94.686 6.40643 94.27 7.19568 94.2823 8.03846C94.2513 8.36009 94.3669 8.67845 94.5957 8.90205C94.8072 9.09849 95.0852 9.20307 95.3711 9.19382C96.0749 9.19382 96.4708 8.81808 96.6249 7.84779C96.6561 7.29448 96.867 6.76774 97.2243 6.35019C97.6805 5.9159 98.2963 5.69981 98.9179 5.75566C99.6253 5.67516 100.326 5.95403 100.793 6.50157C101.151 7.06664 101.326 7.73147 101.294 8.40304V10.5791C99.017 10.7979 93.6333 11.2465 93.8699 15.5091C93.992 17.2881 95.4538 18.6609 97.2022 18.6388C99.2204 18.6388 100.502 17.4497 101.371 16.4906C101.583 17.6729 102.612 18.518 103.79 18.476C105.44 18.476 106.441 17.6348 106.54 15.5259H106.111C106.001 16.4401 105.451 16.9337 105.011 16.9337M101.266 15.6045C101.266 15.6493 101.266 15.683 101.222 15.7054L101.167 15.7614C99.9518 16.9112 99.017 17.3207 98.3406 17.3207C96.5973 17.3207 96.3334 15.8063 96.3334 15.0771C96.3334 12.6543 99.5175 11.4485 101.283 11.4485L101.266 15.6045Z" fill="currentColor"></path><path fill-rule="evenodd" clip-rule="evenodd" d="M119.535 16.9001C119.837 17.304 120.283 17.4609 121.036 17.4891V18.308H115.108V17.517C115.455 17.5114 115.794 17.4128 116.092 17.231C116.365 17.0064 116.531 16.674 116.549 16.3167C116.604 15.801 116.627 15.2819 116.615 14.7633V10.4895C116.668 9.46353 116.534 8.43643 116.219 7.46076C115.916 6.83252 115.416 6.52977 114.476 6.52977C113.449 6.50916 112.495 7.06787 111.995 7.9823C111.528 8.84049 111.534 10.2258 111.534 11.6672V15.0998C111.477 15.7328 111.599 16.3693 111.886 16.9338C112.197 17.3069 112.659 17.5135 113.139 17.4946V18.3191H106.991V17.517C107.356 17.5193 107.719 17.4586 108.064 17.3377C108.421 17.1948 108.688 16.8828 108.779 16.5018C108.899 16.0032 108.951 15.4898 108.932 14.9763V6.00245H106.991V5.307H110.868L111.308 7.6626H111.506C112.235 6.05406 113.851 5.06106 115.586 5.15562C116.238 5.14618 116.882 5.29429 117.467 5.58741C118.013 5.88516 118.459 6.34199 118.748 6.89993C119.06 7.57959 119.204 8.32666 119.166 9.07603V14.9595C119.114 15.6286 119.241 16.2994 119.535 16.9001Z" fill="currentColor"></path><path fill-rule="evenodd" clip-rule="evenodd" d="M91.7368 4.47131C91.3684 4.58918 91.1265 4.93122 90.9945 5.50342C90.8626 6.07542 90.7087 6.33908 90.4447 6.42324C90.1531 6.523 89.8347 6.50085 89.5592 6.36142C88.9214 5.74454 87.7006 4.99305 85.5503 4.99305C82.086 4.99305 80.5572 7.56165 80.5572 9.9005C80.5572 12.6432 81.569 13.9781 83.8017 14.4603C83.8593 14.4605 83.906 14.5083 83.906 14.5672C83.9058 14.6258 83.8591 14.6733 83.8017 14.6735C81.8991 15.0716 80.2162 15.655 80.2162 17.5283C80.182 18.4707 80.7591 19.3239 81.6351 19.6258C82.8206 20.0459 84.0701 20.2473 85.3248 20.2204C86.3111 20.2185 87.2966 20.2672 88.278 20.3662C88.8558 20.4053 89.4135 20.5986 89.8948 20.9272C90.3159 21.2835 90.5464 21.8224 90.516 22.3797C90.5026 23.2799 89.9826 24.0919 89.1799 24.4661C88.1347 24.9959 86.9749 25.2469 85.8088 25.1952C84.7325 25.2723 83.6576 25.0246 82.7184 24.483C82.1387 24.0614 81.8794 23.3152 82.0694 22.6153C82.2537 22.0673 81.9676 21.4709 81.4304 21.2829C81.3877 21.2679 81.3439 21.2559 81.2995 21.2467C80.8812 21.1918 80.4688 21.3858 80.2383 21.7459C80.0358 22.1049 79.9403 22.5161 79.9633 22.9294C79.9847 24.1491 80.8203 25.1958 81.987 25.4645C83.1027 25.8372 84.2721 26.0155 85.4459 25.9916C86.7879 26.0517 88.125 25.7905 89.3504 25.2289C90.8775 24.5464 91.8609 23.0035 91.8524 21.3029C91.8941 20.5156 91.7025 19.7339 91.3025 19.0594C90.0651 17.2928 88.3054 17.5114 84.3571 17.3207C82.4544 17.3207 82.086 16.9673 82.086 16.356C82.086 15.4643 82.7898 15.1109 85.5448 14.6735C88.2999 14.2359 90.7746 13.1985 90.7746 9.76029C90.7827 8.92271 90.6159 8.09282 90.2851 7.32611C90.794 7.46382 91.3299 7.45804 91.836 7.30936C92.3033 7.18783 92.7012 6.87545 92.9357 6.44558C93.1401 6.07022 93.2101 5.63399 93.1336 5.21164C92.9576 4.41527 92.3968 4.25253 91.7259 4.47131M85.6164 13.9388C83.9996 13.9388 83.0759 13.3273 83.0759 9.9005C83.0759 7.48885 83.8842 5.69408 85.6164 5.69408C87.6401 5.69408 88.2285 7.32611 88.2285 9.85004C88.2285 13.4677 87.1286 13.9388 85.6164 13.9388Z" fill="currentColor"></path></g><defs><clipPath id="clip0_114_8286"><rect width="186" height="26" fill="white"></rect></clipPath></defs></svg>